<svg xmlns="http://www.w3.org/2000/svg" viewBox="3 4 60 60" width="40" height="40">
                           <path fill="#D8D9D8" fill-rule="evenodd" d="M42.271 26.578v-.006c.502 0 1.005.01 1.508-.002.646-.017 1.172-.57 1.172-1.217v-2.89c0-.691-.547-1.24-1.236-1.241-.961 0-1.922-.001-2.883 0-.688.001-1.236.552-1.236 1.243-.001.955-.004 1.91.003 2.865.001.143.028.291.073.426.173.508.639.82 1.209.823.463 0 .927-.001 1.39-.001zM33 27.817c-3.384-.002-6.135 2.721-6.182 6.089-.049 3.46 2.72 6.201 6.04 6.272 3.454.074 6.248-2.686 6.321-6.043.075-3.46-2.717-6.32-6.179-6.318zm-11.954 3.299v.082c0 4.515-.001 9.03 0 13.545 0 .649.562 1.208 1.212 1.208 7.16.001 14.319.001 21.479 0 .656 0 1.215-.557 1.215-1.212.001-4.509 0-9.02 0-13.528v-.094H42.04c.411 1.313.537 2.651.376 4.014-.161 1.363-.601 2.631-1.316 3.803s-1.644 2.145-2.779 2.918c-2.944 2.006-6.821 2.182-9.946.428-1.579-.885-2.819-2.12-3.685-3.713-1.289-2.373-1.495-4.865-.739-7.451h-2.905zm24.159 18.139c.159-.026.318-.049.475-.083 1.246-.265 2.264-1.304 2.508-2.557.025-.137.045-.273.067-.409V21.794c-.021-.133-.04-.268-.065-.401-.268-1.367-1.396-2.428-2.78-2.618-.058-.007-.113-.02-.17-.03H20.761c-.147.027-.296.047-.441.08-1.352.308-2.352 1.396-2.545 2.766-.008.057-.02.114-.029.171V46.24c.028.154.05.311.085.465.299 1.322 1.427 2.347 2.77 2.52.064.008.13.021.195.03h24.409zM33 64C16.432 64 3 50.569 3 34S16.432 4 33 4s30 13.431 30 30-13.432 30-30 30z" clip-rule="evenodd"></path>
                        </svg>